#!OML:ASF E:/inclinewalkrobotboard/Project1/Captureday1/Session1/subject1.ASF
:FULLY-SPECIFIED
:DEGREES
138
root 0 0 0 -3.369328400089066 -8.888896012363729 0.6881110667124859
lowerback 5.818185840103392 1.6254913647432763 -0.5887329088891844
upperback 2.205366411226668 2.1523585131268677 -1.4991720604786114
thorax -0.9212915181216996 1.0522964589396495 -1.405507123054181
lowerneck -4.344614091994409 1.0162225730167016 -4.6250070817562765
upperneck 17.324133543874805 1.2237339406810626 2.135139756076918
head 6.194447436859235 0.5801551682540986 1.5513294394691897
rclavicle -5.3349179874160994E-15 1.6522843200091994E-15
rhumerus 43.29441537490224 -27.98149607994368 -43.65131609144153
rradius 53.59270014987189
rwrist 19.57217830243598
rhand -32.3757632341181 2.2272945598132488
rfingers 7.125020000000009
rthumb -5.577632663733839 -27.825247441039306
lclavicle 3.9268276114873945E-16 -7.270004171287993E-17
lhumerus 24.89785353240155 4.863493577315953 50.4772611653496
lradius 72.62589126591843
lwrist 23.720134322545405
lhand -29.35329296836808 31.836650224541497
lfingers 7.12692841896144
lthumb -2.779881570242665 55.17199196397805
rfemur -5.282221174151614 13.410317260995187 20.33334019091821
rtibia 28.970435370285074
rfoot -21.203308002340144 -14.378208067129284
rtoes -4.577879164458659
lfemur -18.26737214817657 -3.4172595567089314 -11.313554600632996
ltibia 39.1146844968279
lfoot -8.74537400064885 6.386478705893361
ltoes -4.8421498599953035
139
root 0 0 0 -3.702714168068658 -9.409371334116038 1.1002962481615783
lowerback 5.574763917526831 1.5809551596646918 -0.541301760870776
upperback 2.1638857658587924 2.1067081173192763 -1.4920238720420782
thorax -0.8286079493439971 1.0281885298473572 -1.4165138137263587
lowerneck -4.371012255676055 1.4956973144056636 -4.360855059499118
upperneck 17.86782442769054 1.8794124911683725 1.539320825566386
head 6.313763097942412 0.8910639052784122 1.3596040923397592
rclavicle -5.185652210926308E-15 1.6581073519068956E-15
rhumerus 43.81433647963724 -27.64829496755433 -43.65484569441138
rradius 55.18909307080189
rwrist 18.55189098223127
rhand -32.996521685593336 1.5489059986855498
rfingers 7.125020000000007
rthumb -6.183348332770398 -28.509877820728107
lclavicle 5.936267309288363E-16 -1.3766748286169735E-16
lhumerus 25.08938028800451 4.034186167227574 50.74455112017748
lradius 74.25260939109458
lwrist 24.780196612938216
lhand -29.449228247777327 32.19795641258674
lfingers 7.1276700791154175
lthumb -2.868148006984283 55.093083428755534
rfemur -5.702203462290882 13.46070093902493 20.069498015625324
rtibia 29.092778093315225
rfoot -20.929644419245186 -14.273267723908342
rtoes -4.605006468142628
lfemur -16.83850723607801 -4.188673232227453 -11.473244413421654
ltibia 36.612528996830896
lfoot -8.929280725317737 7.292867779293856
ltoes -4.111617632754258
140
root 0 0 0 -4.140634592680687 -10.1576286742333 1.6184580449505763
lowerback 5.38475872263098 1.4387704999363717 -0.6683602597240246
upperback 2.173984270168093 1.9151526053537182 -1.460442916698397
thorax -0.7086589605213245 0.9321640310614443 -1.2884492089638182
lowerneck -4.189189377454291 1.891485625565966 -4.267668357541417
upperneck 18.422032547449106 2.4037658136247306 1.1642697966528512
head 6.4068039408808 1.1285431649975144 1.2618768166255077
rclavicle -5.122241565667861E-15 1.673756171428735E-15
rhumerus 44.31975755670142 -27.280101725731495 -43.645242572887156
rradius 56.90293405048316
rwrist 17.463973566597872
rhand -33.65242977442852 0.8228306360437565
rfingers 7.125020000000005
rthumb -6.81943733568467 -29.2284573720714
lclavicle 5.913000545721455E-16 -1.246555147879157E-16
lhumerus 25.18146965608612 3.1853947514392082 51.065061325792584
lradius 75.70295978349
lwrist 25.699662356867986
lhand -29.47688972642658 32.52083356866798
lfingers 7.128348651989469
lthumb -2.888273969659503 55.01088669537431
rfemur -6.533109611907268 13.3911188625375 19.61428275951322
rtibia 29.584347712483755
rfoot -20.63730169034146 -14.212846068748352
rtoes -4.752882374085183
lfemur -15.342584927019534 -4.846722354937166 -11.705648100812363
ltibia 34.261322661816756
lfoot -9.282722574634828 8.216234600632529
ltoes -3.4327880037727825
141
root 0 0 0 -4.544602211502697 -11.170773291684998 2.083145331988794
lowerback 5.272722355490287 1.315824501851134 -0.7736482618287067
upperback 2.199762205262532 1.7474597917378223 -1.4324094522651603
thorax -0.6157890362585963 0.8481490229606142 -1.1799337927625306
lowerneck -4.012992637204328 2.214466648040219 -4.205073517441715
upperneck 18.699287462847103 2.8317308546190207 0.8923462912129647
head 6.42359712588293 1.3208530450554736 1.1976430084538685
rclavicle -5.17019208997549E-15 1.720870868949844E-15
rhumerus 44.777285549576504 -27.19587335637647 -43.54580912824389
rradius 58.15150895264142
rwrist 16.724095894068228
rhand -34.17081015889567 0.33498731414556
rfingers 7.125020000000002
rthumb -7.321478629535889 -29.710021624867167
lclavicle 5.060102998611822E-16 -9.295204492230143E-17
lhumerus 25.134205934150504 2.300695308447761 51.46959589887147
lradius 77.03017145336155
lwrist 26.500124175416648
lhand -29.448650247357662 32.808120826995555
lfingers 7.128841318481017
lthumb -2.8547426346552705 54.95430304087767
rfemur -7.419452784800804 13.379357373331352 19.09497859656394
rtibia 29.97339830044398
rfoot -20.473351391820806 -14.234684427799829
rtoes -5.012531936003149
lfemur -14.049568995922387 -5.376420100862464 -11.92095751710375
ltibia 32.3221641738909
lfoot -9.64061180957751 8.983967720151469
ltoes -2.911778650204527
142
root 0 0 0 -4.773410493125261 -12.259840238243909 2.5148256321515987
lowerback 5.345325823153365 1.2241181955729168 -0.809600572199472
upperback 2.2661750242619574 1.6207917618751635 -1.3928041676919412
thorax -0.5828087386086942 0.7844919134862434 -1.1053843910324974
lowerneck -3.8893982071716087 2.511003750686124 -4.104290585757262
upperneck 18.699818607282452 3.241915974005131 0.6016113643987744
head 6.3654972687003495 1.503987715163611 1.1220106467716837
rclavicle -5.256928771366866E-15 1.778523721786996E-15
rhumerus 45.288245222995364 -27.35687614949784 -43.34411682964547
rradius 59.138610279579794
rwrist 16.17724174162808
rhand -34.635659917713156 -0.017215781150507647
rfingers 7.12502
rthumb -7.772005873587727 -30.058661838832613
lclavicle 4.2574176761055784E-16 -6.918979651966691E-17
lhumerus 24.91884473519183 1.1051393538686796 52.08516369595287
lradius 78.61459997071833
lwrist 27.409308218592848
lhand -29.345741356689647 33.14762500730844
lfingers 7.129407227554033
lthumb -2.747927487539556 54.88771422277036
rfemur -8.147598466670594 13.650234717222233 18.53145401802973
rtibia 29.908444803590147
rfoot -20.493119833264302 -14.203051923365528
rtoes -5.4557552303590295
lfemur -12.911865487000671 -5.903541727353502 -12.100037681049567
ltibia 30.61567247168194
lfoot -9.8545216162226 9.524677326137132
ltoes -2.5234232172946878
143
root 0 0 0 -4.78379268360486 -12.826725991792886 2.6791067374484285
lowerback 5.468810214404126 1.2090276490613667 -0.7740221150402116
upperback 2.3128743046632474 1.599479246038229 -1.37395401802242
thorax -0.6007771386044809 0.7734655349129044 -1.1046310962439336
lowerneck -3.8724403786060018 2.632639764225377 -4.031788484254127
upperneck 18.514141628855555 3.422631589512265 0.4574722854987776
head 6.28910331729803 1.5849605025914828 1.0791354114389402
rclavicle -5.293751071533508E-15 1.7970535405421964E-15
rhumerus 45.45082904999109 -27.464196062694153 -43.260400893823956
rradius 59.390288165634146
rwrist 16.05601143029304
rhand -34.76983749912811 -0.09294715115828522
rfingers 7.12502
rthumb -7.902309502998758 -30.133768089429537
lclavicle 3.721253120913188E-16 -5.2900241834694865E-17
lhumerus 24.869598786965856 0.36763502730913444 52.42500662835914
lradius 79.70743463104586
lwrist 28.066911268308836
lhand -29.319071676117005 33.3847551950521
lfingers 7.129822279841701
lthumb -2.7167373356095936 54.840355080824594
rfemur -8.75382153512194 13.728865261863096 18.13428134128248
rtibia 30.10679985637462
rfoot -20.377231839155215 -14.128569193910357
rtoes -5.69898904542819
lfemur -12.757962167941486 -6.060028783371365 -12.103788014907941
ltibia 30.324923221859134
lfoot -9.765865817183307 9.484648391102741
ltoes -2.5179755038813685
144
root 0 0 0 -4.735111831032487 -13.368453420253157 2.794294342138113
lowerback 5.631947664057299 1.214489353496897 -0.7130111350705721
upperback 2.364550772341026 1.6059785181030395 -1.3599438839625204
thorax -0.6358869266534888 0.7762306402704645 -1.1265307631674406
lowerneck -3.875981810618571 2.722957763332636 -3.9586944616192685
upperneck 18.220916435625178 3.566007467209871 0.3387932221341927
head 6.186510499274012 1.6491039256386113 1.0414146163271334
rclavicle -5.32293379165323E-15 1.8021377736791204E-15
rhumerus 45.37466655213176 -27.530832366152286 -43.2598675627536
rradius 59.17724348216717
rwrist 16.205674052812086
rhand -34.69273903764493 0.008264696330322563
rfingers 7.12502
rthumb -7.827372201765977 -30.03321318622436
lclavicle 3.283474895508975E-16 -4.169493265800918E-17
lhumerus 24.801133263968257 -0.2887632114080816 52.73850534923973
lradius 80.65050289751893
lwrist 28.627383317260822
lhand -29.286202948165695 33.58862902258742
lfingers 7.130184994470259
lthumb -2.680327336992118 54.79996023985486
rfemur -9.450326653030352 13.723738683045262 17.724595826021442
rtibia 30.48629864987504
rfoot -20.14338178051915 -14.022199389455027
rtoes -5.88116778562634
lfemur -13.06053042705872 -6.067827945613029 -12.023999792795635
ltibia 30.67664633040938
lfoot -9.489508168442255 9.13688696517033
ltoes -2.6882654456756203
145
root 0 0 0 -4.664476094119653 -13.915421210920027 2.8885597182391414
lowerback 5.81189178606215 1.2285657076064305 -0.6432288241806676
upperback 2.419186347580264 1.6239017456479339 -1.348730846074568
thorax -0.6773958380797007 0.7846588205866789 -1.1575968185617975
lowerneck -3.8836297830670263 2.7963757447894744 -3.8892906574433965
upperneck 17.87501261400315 3.6882037244825425 0.23939844961609413
head 6.070214085692061 1.7035133982679107 1.0089153250286014
rclavicle -5.351049310248949E-15 1.796978915414506E-15
rhumerus 45.17672933755889 -27.615135773591977 -43.28432269251706
rradius 58.610597808060476
rwrist 16.569066135419675
rhand -34.468228475664134 0.24457487786207668
rfingers 7.125020000000001
rthumb -7.608729676981328 -29.799504513017403
lclavicle 2.7231103821797317E-16 -2.6299092294389636E-17
lhumerus 24.74668288546545 -0.8893381021837357 53.021299576177896
lradius 81.52225760325813
lwrist 29.147104404554632
lhand -29.25779682161862 33.77767601225383
lfingers 7.13055935606302
lthumb -2.6483497838060757 54.764622465366905
rfemur -10.239577271844674 13.622291652753567 17.308306351292586
rtibia 31.055661707530902
rfoot -19.796064744930668 -13.899616632959914
rtoes -5.993958509090264
lfemur -13.683777881656148 -5.977414789149535 -11.882274988215794
ltibia 31.461102529748942
lfoot -9.077466414192646 8.582910011565263
ltoes -2.973409401133955
